<svg xmlns="http://www.w3.org/2000/svg" version="1.1" xmlns:xlink="http://www.w3.org/1999/xlink" xmlns:svgjs="http://svgjs.com/svgjs" width="1440" height="560" preserveAspectRatio="none" viewBox="0 0 1440 560"><g mask="url(&quot;#SvgjsMask1000&quot;)" fill="none"><rect width="1440" height="560" x="0" y="0" fill="#0e2a47"></rect><path d="M-44.55 519.51L-44.55 519.51" stroke="#132e65" stroke-width="1.5"></path><path d="M-44.55 519.51L-70.13 647.88" stroke="#132e65" stroke-width="1.5"></path><path d="M-70.13 647.88L-70.13 647.88" stroke="#132e65" stroke-width="1.5"></path><path d="M-70.13 647.88L54.81 643.61" stroke="#132e65" stroke-width="1.5"></path><path d="M-70.13 647.88L106.58 548.24" stroke="#132e65" stroke-width="1.5"></path><path d="M-70.13 647.88L84.89 401.85" stroke="#132e65" stroke-width="1.5"></path><path d="M-70.13 647.88L222.07 659.47" stroke="#132e65" stroke-width="1.5"></path><path d="M-70.13 647.88L247.67 538.48" stroke="#132e65" stroke-width="1.5"></path><path d="M84.89 401.85L84.89 401.85" stroke="#132e65" stroke-width="1.5"></path><path d="M84.89 401.85L106.58 548.24" stroke="#132e65" stroke-width="1.5"></path><path d="M84.89 401.85L-44.55 519.51" stroke="#132e65" stroke-width="1.5"></path><path d="M84.89 401.85L254.98 354.34" stroke="#132e65" stroke-width="1.5"></path><path d="M84.89 401.85L247.67 538.48" stroke="#132e65" stroke-width="1.5"></path><path d="M84.89 401.85L54.81 643.61" stroke="#132e65" stroke-width="1.5"></path><path d="M106.58 548.24L106.58 548.24" stroke="#132e65" stroke-width="1.5"></path><path d="M106.58 548.24L54.81 643.61" stroke="#132e65" stroke-width="1.5"></path><path d="M106.58 548.24L247.67 538.48" stroke="#132e65" stroke-width="1.5"></path><path d="M54.81 643.61L54.81 643.61" stroke="#132e65" stroke-width="1.5"></path><path d="M54.81 643.61L-44.55 519.51" stroke="#132e65" stroke-width="1.5"></path><path d="M254.98 354.34L254.98 354.34" stroke="#132e65" stroke-width="1.5"></path><path d="M254.98 354.34L365.87 339.1" stroke="#132e65" stroke-width="1.5"></path><path d="M254.98 354.34L247.67 538.48" stroke="#132e65" stroke-width="1.5"></path><path d="M254.98 354.34L377.48 524.71" stroke="#132e65" stroke-width="1.5"></path><path d="M254.98 354.34L493.55 371.55" stroke="#132e65" stroke-width="1.5"></path><path d="M254.98 354.34L106.58 548.24" stroke="#132e65" stroke-width="1.5"></path><path d="M247.67 538.48L247.67 538.48" stroke="#132e65" stroke-width="1.5"></path><path d="M247.67 538.48L222.07 659.47" stroke="#132e65" stroke-width="1.5"></path><path d="M247.67 538.48L377.48 524.71" stroke="#132e65" stroke-width="1.5"></path><path d="M247.67 538.48L410.69 665.41" stroke="#132e65" stroke-width="1.5"></path><path d="M222.07 659.47L222.07 659.47" stroke="#132e65" stroke-width="1.5"></path><path d="M222.07 659.47L106.58 548.24" stroke="#132e65" stroke-width="1.5"></path><path d="M222.07 659.47L54.81 643.61" stroke="#132e65" stroke-width="1.5"></path><path d="M365.87 339.1L365.87 339.1" stroke="#132e65" stroke-width="1.5"></path><path d="M365.87 339.1L493.55 371.55" stroke="#132e65" stroke-width="1.5"></path><path d="M377.48 524.71L377.48 524.71" stroke="#132e65" stroke-width="1.5"></path><path d="M377.48 524.71L505.54 507.04" stroke="#132e65" stroke-width="1.5"></path><path d="M410.69 665.41L410.69 665.41" stroke="#132e65" stroke-width="1.5"></path><path d="M410.69 665.41L515.78 711.88" stroke="#132e65" stroke-width="1.5"></path><path d="M410.69 665.41L377.48 524.71" stroke="#132e65" stroke-width="1.5"></path><path d="M410.69 665.41L505.54 507.04" stroke="#132e65" stroke-width="1.5"></path><path d="M410.69 665.41L222.07 659.47" stroke="#132e65" stroke-width="1.5"></path><path d="M493.55 371.55L493.55 371.55" stroke="#132e65" stroke-width="1.5"></path><path d="M505.54 507.04L505.54 507.04" stroke="#132e65" stroke-width="1.5"></path><path d="M505.54 507.04L493.55 371.55" stroke="#132e65" stroke-width="1.5"></path><path d="M505.54 507.04L688.14 557.07" stroke="#132e65" stroke-width="1.5"></path><path d="M515.78 711.88L515.78 711.88" stroke="#132e65" stroke-width="1.5"></path><path d="M515.78 711.88L505.54 507.04" stroke="#132e65" stroke-width="1.5"></path><path d="M693.7 352.83L693.7 352.83" stroke="#132e65" stroke-width="1.5"></path><path d="M693.7 352.83L839.86 406.54" stroke="#132e65" stroke-width="1.5"></path><path d="M693.7 352.83L831.94 236.95" stroke="#132e65" stroke-width="1.5"></path><path d="M693.7 352.83L493.55 371.55" stroke="#132e65" stroke-width="1.5"></path><path d="M693.7 352.83L688.14 557.07" stroke="#132e65" stroke-width="1.5"></path><path d="M693.7 352.83L791.16 560.92" stroke="#132e65" stroke-width="1.5"></path><path d="M688.14 557.07L688.14 557.07" stroke="#132e65" stroke-width="1.5"></path><path d="M688.14 557.07L791.16 560.92" stroke="#132e65" stroke-width="1.5"></path><path d="M688.14 557.07L829.14 681.66" stroke="#132e65" stroke-width="1.5"></path><path d="M831.94 236.95L831.94 236.95" stroke="#132e65" stroke-width="1.5"></path><path d="M831.94 236.95L992.39 240.93" stroke="#132e65" stroke-width="1.5"></path><path d="M831.94 236.95L956.64 338.71" stroke="#132e65" stroke-width="1.5"></path><path d="M831.94 236.95L839.86 406.54" stroke="#132e65" stroke-width="1.5"></path><path d="M831.94 236.95L940.13 97.94" stroke="#132e65" stroke-width="1.5"></path><path d="M839.86 406.54L839.86 406.54" stroke="#132e65" stroke-width="1.5"></path><path d="M839.86 406.54L956.64 338.71" stroke="#132e65" stroke-width="1.5"></path><path d="M839.86 406.54L791.16 560.92" stroke="#132e65" stroke-width="1.5"></path><path d="M839.86 406.54L978.75 489.9" stroke="#132e65" stroke-width="1.5"></path><path d="M791.16 560.92L791.16 560.92" stroke="#132e65" stroke-width="1.5"></path><path d="M791.16 560.92L829.14 681.66" stroke="#132e65" stroke-width="1.5"></path><path d="M791.16 560.92L978.75 489.9" stroke="#132e65" stroke-width="1.5"></path><path d="M791.16 560.92L971.95 684.66" stroke="#132e65" stroke-width="1.5"></path><path d="M829.14 681.66L829.14 681.66" stroke="#132e65" stroke-width="1.5"></path><path d="M829.14 681.66L971.95 684.66" stroke="#132e65" stroke-width="1.5"></path><path d="M949.48 -39.48L949.48 -39.48" stroke="#132e65" stroke-width="1.5"></path><path d="M949.48 -39.48L940.13 97.94" stroke="#132e65" stroke-width="1.5"></path><path d="M949.48 -39.48L1141.73 -38.99" stroke="#132e65" stroke-width="1.5"></path><path d="M949.48 -39.48L1158.43 37.85" stroke="#132e65" stroke-width="1.5"></path><path d="M949.48 -39.48L1091.68 199" stroke="#132e65" stroke-width="1.5"></path><path d="M940.13 97.94L940.13 97.94" stroke="#132e65" stroke-width="1.5"></path><path d="M940.13 97.94L992.39 240.93" stroke="#132e65" stroke-width="1.5"></path><path d="M940.13 97.94L1091.68 199" stroke="#132e65" stroke-width="1.5"></path><path d="M940.13 97.94L1158.43 37.85" stroke="#132e65" stroke-width="1.5"></path><path d="M992.39 240.93L992.39 240.93" stroke="#132e65" stroke-width="1.5"></path><path d="M992.39 240.93L956.64 338.71" stroke="#132e65" stroke-width="1.5"></path><path d="M992.39 240.93L1091.68 199" stroke="#132e65" stroke-width="1.5"></path><path d="M956.64 338.71L956.64 338.71" stroke="#132e65" stroke-width="1.5"></path><path d="M978.75 489.9L978.75 489.9" stroke="#132e65" stroke-width="1.5"></path><path d="M978.75 489.9L1099.65 537.05" stroke="#132e65" stroke-width="1.5"></path><path d="M978.75 489.9L956.64 338.71" stroke="#132e65" stroke-width="1.5"></path><path d="M978.75 489.9L971.95 684.66" stroke="#132e65" stroke-width="1.5"></path><path d="M971.95 684.66L971.95 684.66" stroke="#132e65" stroke-width="1.5"></path><path d="M971.95 684.66L1099.65 537.05" stroke="#132e65" stroke-width="1.5"></path><path d="M971.95 684.66L839.86 406.54" stroke="#132e65" stroke-width="1.5"></path><path d="M1141.73 -38.99L1141.73 -38.99" stroke="#132e65" stroke-width="1.5"></path><path d="M1141.73 -38.99L1158.43 37.85" stroke="#132e65" stroke-width="1.5"></path><path d="M1141.73 -38.99L1274.44 -97.66" stroke="#132e65" stroke-width="1.5"></path><path d="M1158.43 37.85L1158.43 37.85" stroke="#132e65" stroke-width="1.5"></path><path d="M1158.43 37.85L1274.86 75.09" stroke="#132e65" stroke-width="1.5"></path><path d="M1158.43 37.85L1091.68 199" stroke="#132e65" stroke-width="1.5"></path><path d="M1091.68 199L1091.68 199" stroke="#132e65" stroke-width="1.5"></path><path d="M1091.68 199L1250.76 213.63" stroke="#132e65" stroke-width="1.5"></path><path d="M1091.68 199L956.64 338.71" stroke="#132e65" stroke-width="1.5"></path><path d="M1091.68 199L1157.45 406.3" stroke="#132e65" stroke-width="1.5"></path><path d="M1157.45 406.3L1157.45 406.3" stroke="#132e65" stroke-width="1.5"></path><path d="M1157.45 406.3L1263.96 354.3" stroke="#132e65" stroke-width="1.5"></path><path d="M1157.45 406.3L1099.65 537.05" stroke="#132e65" stroke-width="1.5"></path><path d="M1157.45 406.3L1308.97 494.48" stroke="#132e65" stroke-width="1.5"></path><path d="M1157.45 406.3L978.75 489.9" stroke="#132e65" stroke-width="1.5"></path><path d="M1157.45 406.3L956.64 338.71" stroke="#132e65" stroke-width="1.5"></path><path d="M1099.65 537.05L1099.65 537.05" stroke="#132e65" stroke-width="1.5"></path><path d="M1099.65 537.05L1308.97 494.48" stroke="#132e65" stroke-width="1.5"></path><path d="M1099.65 537.05L956.64 338.71" stroke="#132e65" stroke-width="1.5"></path><path d="M1099.65 537.05L1263.96 354.3" stroke="#132e65" stroke-width="1.5"></path><path d="M1274.44 -97.66L1274.44 -97.66" stroke="#132e65" stroke-width="1.5"></path><path d="M1274.44 -97.66L1412.99 -52.8" stroke="#132e65" stroke-width="1.5"></path><path d="M1274.44 -97.66L1274.86 75.09" stroke="#132e65" stroke-width="1.5"></path><path d="M1274.44 -97.66L1158.43 37.85" stroke="#132e65" stroke-width="1.5"></path><path d="M1274.44 -97.66L1459.71 87.01" stroke="#132e65" stroke-width="1.5"></path><path d="M1274.86 75.09L1274.86 75.09" stroke="#132e65" stroke-width="1.5"></path><path d="M1274.86 75.09L1250.76 213.63" stroke="#132e65" stroke-width="1.5"></path><path d="M1274.86 75.09L1141.73 -38.99" stroke="#132e65" stroke-width="1.5"></path><path d="M1274.86 75.09L1459.71 87.01" stroke="#132e65" stroke-width="1.5"></path><path d="M1274.86 75.09L1412.99 -52.8" stroke="#132e65" stroke-width="1.5"></path><path d="M1250.76 213.63L1250.76 213.63" stroke="#132e65" stroke-width="1.5"></path><path d="M1250.76 213.63L1263.96 354.3" stroke="#132e65" stroke-width="1.5"></path><path d="M1263.96 354.3L1263.96 354.3" stroke="#132e65" stroke-width="1.5"></path><path d="M1263.96 354.3L1308.97 494.48" stroke="#132e65" stroke-width="1.5"></path><path d="M1263.96 354.3L1432.9 378.72" stroke="#132e65" stroke-width="1.5"></path><path d="M1263.96 354.3L1440.22 488.46" stroke="#132e65" stroke-width="1.5"></path><path d="M1308.97 494.48L1308.97 494.48" stroke="#132e65" stroke-width="1.5"></path><path d="M1308.97 494.48L1440.22 488.46" stroke="#132e65" stroke-width="1.5"></path><path d="M1308.97 494.48L1432.9 378.72" stroke="#132e65" stroke-width="1.5"></path><path d="M1308.97 494.48L1309.27 688.39" stroke="#132e65" stroke-width="1.5"></path><path d="M1309.27 688.39L1309.27 688.39" stroke="#132e65" stroke-width="1.5"></path><path d="M1309.27 688.39L1436.92 697.32" stroke="#132e65" stroke-width="1.5"></path><path d="M1309.27 688.39L1440.22 488.46" stroke="#132e65" stroke-width="1.5"></path><path d="M1309.27 688.39L1099.65 537.05" stroke="#132e65" stroke-width="1.5"></path><path d="M1309.27 688.39L1587.73 705.42" stroke="#132e65" stroke-width="1.5"></path><path d="M1309.27 688.39L1157.45 406.3" stroke="#132e65" stroke-width="1.5"></path><path d="M1412.99 -52.8L1412.99 -52.8" stroke="#132e65" stroke-width="1.5"></path><path d="M1412.99 -52.8L1459.71 87.01" stroke="#132e65" stroke-width="1.5"></path><path d="M1459.71 87.01L1459.71 87.01" stroke="#132e65" stroke-width="1.5"></path><path d="M1459.71 87.01L1444.71 194.03" stroke="#132e65" stroke-width="1.5"></path><path d="M1444.71 194.03L1444.71 194.03" stroke="#132e65" stroke-width="1.5"></path><path d="M1444.71 194.03L1560.33 202.03" stroke="#132e65" stroke-width="1.5"></path><path d="M1432.9 378.72L1432.9 378.72" stroke="#132e65" stroke-width="1.5"></path><path d="M1432.9 378.72L1440.22 488.46" stroke="#132e65" stroke-width="1.5"></path><path d="M1432.9 378.72L1553.37 349.36" stroke="#132e65" stroke-width="1.5"></path><path d="M1432.9 378.72L1444.71 194.03" stroke="#132e65" stroke-width="1.5"></path><path d="M1440.22 488.46L1440.22 488.46" stroke="#132e65" stroke-width="1.5"></path><path d="M1436.92 697.32L1436.92 697.32" stroke="#132e65" stroke-width="1.5"></path><path d="M1436.92 697.32L1587.73 705.42" stroke="#132e65" stroke-width="1.5"></path><path d="M1436.92 697.32L1440.22 488.46" stroke="#132e65" stroke-width="1.5"></path><path d="M1436.92 697.32L1591.01 515.43" stroke="#132e65" stroke-width="1.5"></path><path d="M1580.36 -107.24L1580.36 -107.24" stroke="#132e65" stroke-width="1.5"></path><path d="M1580.36 -107.24L1412.99 -52.8" stroke="#132e65" stroke-width="1.5"></path><path d="M1580.36 -107.24L1582.98 87.93" stroke="#132e65" stroke-width="1.5"></path><path d="M1580.36 -107.24L1459.71 87.01" stroke="#132e65" stroke-width="1.5"></path><path d="M1582.98 87.93L1582.98 87.93" stroke="#132e65" stroke-width="1.5"></path><path d="M1582.98 87.93L1560.33 202.03" stroke="#132e65" stroke-width="1.5"></path><path d="M1582.98 87.93L1459.71 87.01" stroke="#132e65" stroke-width="1.5"></path><path d="M1560.33 202.03L1560.33 202.03" stroke="#132e65" stroke-width="1.5"></path><path d="M1560.33 202.03L1553.37 349.36" stroke="#132e65" stroke-width="1.5"></path><path d="M1560.33 202.03L1459.71 87.01" stroke="#132e65" stroke-width="1.5"></path><path d="M1560.33 202.03L1432.9 378.72" stroke="#132e65" stroke-width="1.5"></path><path d="M1553.37 349.36L1553.37 349.36" stroke="#132e65" stroke-width="1.5"></path><path d="M1591.01 515.43L1591.01 515.43" stroke="#132e65" stroke-width="1.5"></path><path d="M1591.01 515.43L1440.22 488.46" stroke="#132e65" stroke-width="1.5"></path><path d="M1591.01 515.43L1553.37 349.36" stroke="#132e65" stroke-width="1.5"></path><path d="M1591.01 515.43L1587.73 705.42" stroke="#132e65" stroke-width="1.5"></path><path d="M1591.01 515.43L1432.9 378.72" stroke="#132e65" stroke-width="1.5"></path><path d="M1591.01 515.43L1308.97 494.48" stroke="#132e65" stroke-width="1.5"></path><path d="M1587.73 705.42L1587.73 705.42" stroke="#132e65" stroke-width="1.5"></path><path d="M1587.73 705.42L1440.22 488.46" stroke="#132e65" stroke-width="1.5"></path><circle r="5" cx="-44.55" cy="519.51" fill="#132e65"></circle><circle r="5" cx="-70.13" cy="647.88" fill="#132e65"></circle><circle r="5" cx="84.89" cy="401.85" fill="#132e65"></circle><circle r="5" cx="106.58" cy="548.24" fill="#132e65"></circle><circle r="5" cx="54.81" cy="643.61" fill="#132e65"></circle><circle r="5" cx="254.98" cy="354.34" fill="#132e65"></circle><circle r="5" cx="247.67" cy="538.48" fill="#132e65"></circle><circle r="5" cx="222.07" cy="659.47" fill="#132e65"></circle><circle r="5" cx="365.87" cy="339.1" fill="#132e65"></circle><circle r="5" cx="377.48" cy="524.71" fill="#132e65"></circle><circle r="5" cx="410.69" cy="665.41" fill="#132e65"></circle><circle r="5" cx="493.55" cy="371.55" fill="#132e65"></circle><circle r="5" cx="505.54" cy="507.04" fill="#132e65"></circle><circle r="5" cx="515.78" cy="711.88" fill="#132e65"></circle><circle r="5" cx="693.7" cy="352.83" fill="#132e65"></circle><circle r="5" cx="688.14" cy="557.07" fill="#132e65"></circle><circle r="5" cx="831.94" cy="236.95" fill="#132e65"></circle><circle r="5" cx="839.86" cy="406.54" fill="#132e65"></circle><circle r="5" cx="791.16" cy="560.92" fill="#132e65"></circle><circle r="5" cx="829.14" cy="681.66" fill="#132e65"></circle><circle r="5" cx="949.48" cy="-39.48" fill="#132e65"></circle><circle r="5" cx="940.13" cy="97.94" fill="#132e65"></circle><circle r="5" cx="992.39" cy="240.93" fill="#132e65"></circle><circle r="5" cx="956.64" cy="338.71" fill="#132e65"></circle><circle r="5" cx="978.75" cy="489.9" fill="#132e65"></circle><circle r="5" cx="971.95" cy="684.66" fill="#132e65"></circle><circle r="5" cx="1141.73" cy="-38.99" fill="#132e65"></circle><circle r="5" cx="1158.43" cy="37.85" fill="#132e65"></circle><circle r="5" cx="1091.68" cy="199" fill="#132e65"></circle><circle r="5" cx="1157.45" cy="406.3" fill="#132e65"></circle><circle r="5" cx="1099.65" cy="537.05" fill="#132e65"></circle><circle r="5" cx="1274.44" cy="-97.66" fill="#132e65"></circle><circle r="5" cx="1274.86" cy="75.09" fill="#132e65"></circle><circle r="5" cx="1250.76" cy="213.63" fill="#132e65"></circle><circle r="5" cx="1263.96" cy="354.3" fill="#132e65"></circle><circle r="5" cx="1308.97" cy="494.48" fill="#132e65"></circle><circle r="5" cx="1309.27" cy="688.39" fill="#132e65"></circle><circle r="5" cx="1412.99" cy="-52.8" fill="#132e65"></circle><circle r="5" cx="1459.71" cy="87.01" fill="#132e65"></circle><circle r="5" cx="1444.71" cy="194.03" fill="#132e65"></circle><circle r="5" cx="1432.9" cy="378.72" fill="#132e65"></circle><circle r="5" cx="1440.22" cy="488.46" fill="#132e65"></circle><circle r="5" cx="1436.92" cy="697.32" fill="#132e65"></circle><circle r="5" cx="1580.36" cy="-107.24" fill="#132e65"></circle><circle r="5" cx="1582.98" cy="87.93" fill="#132e65"></circle><circle r="5" cx="1560.33" cy="202.03" fill="#132e65"></circle><circle r="5" cx="1553.37" cy="349.36" fill="#132e65"></circle><circle r="5" cx="1591.01" cy="515.43" fill="#132e65"></circle><circle r="5" cx="1587.73" cy="705.42" fill="#132e65"></circle><path d="M62.9 700.01L62.9 700.01" stroke="hsl(228.5, 77.2%, 51.5%)" stroke-width="1.5"></path><path d="M62.9 700.01L-48.32 639.64" stroke="hsl(228.5, 77.2%, 51.5%)" stroke-width="1.5"></path><path d="M62.9 700.01L249.03 652.18" stroke="hsl(228.5, 77.2%, 51.5%)" stroke-width="1.5"></path><path d="M62.9 700.01L218.37 553.71" stroke="hsl(228.5, 77.2%, 51.5%)" stroke-width="1.5"></path><path d="M62.9 700.01L-98.88 540.37" stroke="hsl(228.5, 77.2%, 51.5%)" stroke-width="1.5"></path><path d="M62.9 700.01L343.17 649.46" stroke="hsl(228.5, 77.2%, 51.5%)" stroke-width="1.5"></path><path d="M218.37 553.71L218.37 553.71" stroke="hsl(228.5, 77.2%, 51.5%)" stroke-width="1.5"></path><path d="M218.37 553.71L249.03 652.18" stroke="hsl(228.5, 77.2%, 51.5%)" stroke-width="1.5"></path><path d="M218.37 553.71L343.17 649.46" stroke="hsl(228.5, 77.2%, 51.5%)" stroke-width="1.5"></path><path d="M654.82 691.84L654.82 691.84" stroke="hsl(228.5, 77.2%, 51.5%)" stroke-width="1.5"></path><path d="M654.82 691.84L498.5 662" stroke="hsl(228.5, 77.2%, 51.5%)" stroke-width="1.5"></path><path d="M654.82 691.84L673.83 524.87" stroke="hsl(228.5, 77.2%, 51.5%)" stroke-width="1.5"></path><path d="M654.82 691.84L854.74 692.33" stroke="hsl(228.5, 77.2%, 51.5%)" stroke-width="1.5"></path><path d="M654.82 691.84L797.7 539.68" stroke="hsl(228.5, 77.2%, 51.5%)" stroke-width="1.5"></path><path d="M654.82 691.84L505.88 529.59" stroke="hsl(228.5, 77.2%, 51.5%)" stroke-width="1.5"></path><path d="M654.82 691.84L643.39 383" stroke="hsl(228.5, 77.2%, 51.5%)" stroke-width="1.5"></path><path d="M1309.79 -109.98L1309.79 -109.98" stroke="hsl(228.5, 77.2%, 51.5%)" stroke-width="1.5"></path><path d="M1309.79 -109.98L1404.96 -89.72" stroke="hsl(228.5, 77.2%, 51.5%)" stroke-width="1.5"></path><path d="M1309.79 -109.98L1279.99 65.34" stroke="hsl(228.5, 77.2%, 51.5%)" stroke-width="1.5"></path><path d="M1309.79 -109.98L1541.31 -48.6" stroke="hsl(228.5, 77.2%, 51.5%)" stroke-width="1.5"></path><path d="M1279.01 537.77L1279.01 537.77" stroke="hsl(228.5, 77.2%, 51.5%)" stroke-width="1.5"></path><path d="M1279.01 537.77L1159.93 557.46" stroke="hsl(228.5, 77.2%, 51.5%)" stroke-width="1.5"></path><path d="M1279.01 537.77L1424.5 515.32" stroke="hsl(228.5, 77.2%, 51.5%)" stroke-width="1.5"></path><path d="M1271.57 700.33L1271.57 700.33" stroke="hsl(228.5, 77.2%, 51.5%)" stroke-width="1.5"></path><path d="M1271.57 700.33L1405.36 670.21" stroke="hsl(228.5, 77.2%, 51.5%)" stroke-width="1.5"></path><path d="M1271.57 700.33L1279.01 537.77" stroke="hsl(228.5, 77.2%, 51.5%)" stroke-width="1.5"></path><path d="M1271.57 700.33L1159.93 557.46" stroke="hsl(228.5, 77.2%, 51.5%)" stroke-width="1.5"></path><path d="M1424.5 515.32L1424.5 515.32" stroke="hsl(228.5, 77.2%, 51.5%)" stroke-width="1.5"></path><path d="M1424.5 515.32L1409.14 406.64" stroke="hsl(228.5, 77.2%, 51.5%)" stroke-width="1.5"></path><path d="M1571.56 45.79L1571.56 45.79" stroke="hsl(228.5, 77.2%, 51.5%)" stroke-width="1.5"></path><path d="M1571.56 45.79L1541.31 -48.6" stroke="hsl(228.5, 77.2%, 51.5%)" stroke-width="1.5"></path><path d="M1571.56 45.79L1550.46 204.68" stroke="hsl(228.5, 77.2%, 51.5%)" stroke-width="1.5"></path><path d="M1571.56 45.79L1404.96 -89.72" stroke="hsl(228.5, 77.2%, 51.5%)" stroke-width="1.5"></path><path d="M1571.56 45.79L1431.7 215.57" stroke="hsl(228.5, 77.2%, 51.5%)" stroke-width="1.5"></path><path d="M1571.56 45.79L1279.99 65.34" stroke="hsl(228.5, 77.2%, 51.5%)" stroke-width="1.5"></path><path d="M1571.56 45.79L1309.79 -109.98" stroke="hsl(228.5, 77.2%, 51.5%)" stroke-width="1.5"></path><path d="M1597.23 492.91L1597.23 492.91" stroke="hsl(228.5, 77.2%, 51.5%)" stroke-width="1.5"></path><path d="M1597.23 492.91L1546.11 378.25" stroke="hsl(228.5, 77.2%, 51.5%)" stroke-width="1.5"></path><path d="M1597.23 492.91L1424.5 515.32" stroke="hsl(228.5, 77.2%, 51.5%)" stroke-width="1.5"></path><path d="M1597.23 492.91L1409.14 406.64" stroke="hsl(228.5, 77.2%, 51.5%)" stroke-width="1.5"></path><path d="M1597.23 492.91L1537.71 710.66" stroke="hsl(228.5, 77.2%, 51.5%)" stroke-width="1.5"></path><path d="M1597.23 492.91L1405.36 670.21" stroke="hsl(228.5, 77.2%, 51.5%)" stroke-width="1.5"></path><path d="M-98.88 540.37L-98.88 540.37" stroke="hsl(228.5, 77.2%, 51.5%)" stroke-width="1.5"></path><path d="M-98.88 540.37L-48.32 639.64" stroke="hsl(228.5, 77.2%, 51.5%)" stroke-width="1.5"></path><path d="M-98.88 540.37L218.37 553.71" stroke="hsl(228.5, 77.2%, 51.5%)" stroke-width="1.5"></path><path d="M-98.88 540.37L249.03 652.18" stroke="hsl(228.5, 77.2%, 51.5%)" stroke-width="1.5"></path><path d="M-48.32 639.64L-48.32 639.64" stroke="hsl(228.5, 77.2%, 51.5%)" stroke-width="1.5"></path><path d="M-48.32 639.64L218.37 553.71" stroke="hsl(228.5, 77.2%, 51.5%)" stroke-width="1.5"></path><path d="M-48.32 639.64L249.03 652.18" stroke="hsl(228.5, 77.2%, 51.5%)" stroke-width="1.5"></path><path d="M249.03 652.18L249.03 652.18" stroke="hsl(228.5, 77.2%, 51.5%)" stroke-width="1.5"></path><path d="M249.03 652.18L343.17 649.46" stroke="hsl(228.5, 77.2%, 51.5%)" stroke-width="1.5"></path><path d="M384.06 493.23L384.06 493.23" stroke="hsl(228.5, 77.2%, 51.5%)" stroke-width="1.5"></path><path d="M384.06 493.23L505.88 529.59" stroke="hsl(228.5, 77.2%, 51.5%)" stroke-width="1.5"></path><path d="M384.06 493.23L343.17 649.46" stroke="hsl(228.5, 77.2%, 51.5%)" stroke-width="1.5"></path><path d="M384.06 493.23L218.37 553.71" stroke="hsl(228.5, 77.2%, 51.5%)" stroke-width="1.5"></path><path d="M384.06 493.23L498.5 662" stroke="hsl(228.5, 77.2%, 51.5%)" stroke-width="1.5"></path><path d="M384.06 493.23L249.03 652.18" stroke="hsl(228.5, 77.2%, 51.5%)" stroke-width="1.5"></path><path d="M343.17 649.46L343.17 649.46" stroke="hsl(228.5, 77.2%, 51.5%)" stroke-width="1.5"></path><path d="M343.17 649.46L498.5 662" stroke="hsl(228.5, 77.2%, 51.5%)" stroke-width="1.5"></path><path d="M505.88 529.59L505.88 529.59" stroke="hsl(228.5, 77.2%, 51.5%)" stroke-width="1.5"></path><path d="M498.5 662L498.5 662" stroke="hsl(228.5, 77.2%, 51.5%)" stroke-width="1.5"></path><path d="M498.5 662L505.88 529.59" stroke="hsl(228.5, 77.2%, 51.5%)" stroke-width="1.5"></path><path d="M643.39 383L643.39 383" stroke="hsl(228.5, 77.2%, 51.5%)" stroke-width="1.5"></path><path d="M643.39 383L673.83 524.87" stroke="hsl(228.5, 77.2%, 51.5%)" stroke-width="1.5"></path><path d="M643.39 383L792.81 391.32" stroke="hsl(228.5, 77.2%, 51.5%)" stroke-width="1.5"></path><path d="M643.39 383L505.88 529.59" stroke="hsl(228.5, 77.2%, 51.5%)" stroke-width="1.5"></path><path d="M673.83 524.87L673.83 524.87" stroke="hsl(228.5, 77.2%, 51.5%)" stroke-width="1.5"></path><path d="M673.83 524.87L797.7 539.68" stroke="hsl(228.5, 77.2%, 51.5%)" stroke-width="1.5"></path><path d="M673.83 524.87L505.88 529.59" stroke="hsl(228.5, 77.2%, 51.5%)" stroke-width="1.5"></path><path d="M673.83 524.87L792.81 391.32" stroke="hsl(228.5, 77.2%, 51.5%)" stroke-width="1.5"></path><path d="M792.81 391.32L792.81 391.32" stroke="hsl(228.5, 77.2%, 51.5%)" stroke-width="1.5"></path><path d="M792.81 391.32L797.7 539.68" stroke="hsl(228.5, 77.2%, 51.5%)" stroke-width="1.5"></path><path d="M797.7 539.68L797.7 539.68" stroke="hsl(228.5, 77.2%, 51.5%)" stroke-width="1.5"></path><path d="M797.7 539.68L854.74 692.33" stroke="hsl(228.5, 77.2%, 51.5%)" stroke-width="1.5"></path><path d="M854.74 692.33L854.74 692.33" stroke="hsl(228.5, 77.2%, 51.5%)" stroke-width="1.5"></path><path d="M854.74 692.33L1088.43 702.51" stroke="hsl(228.5, 77.2%, 51.5%)" stroke-width="1.5"></path><path d="M854.74 692.33L673.83 524.87" stroke="hsl(228.5, 77.2%, 51.5%)" stroke-width="1.5"></path><path d="M854.74 692.33L958.84 405.66" stroke="hsl(228.5, 77.2%, 51.5%)" stroke-width="1.5"></path><path d="M958.84 405.66L958.84 405.66" stroke="hsl(228.5, 77.2%, 51.5%)" stroke-width="1.5"></path><path d="M958.84 405.66L1092.15 375.34" stroke="hsl(228.5, 77.2%, 51.5%)" stroke-width="1.5"></path><path d="M958.84 405.66L792.81 391.32" stroke="hsl(228.5, 77.2%, 51.5%)" stroke-width="1.5"></path><path d="M958.84 405.66L797.7 539.68" stroke="hsl(228.5, 77.2%, 51.5%)" stroke-width="1.5"></path><path d="M958.84 405.66L1097.68 243.48" stroke="hsl(228.5, 77.2%, 51.5%)" stroke-width="1.5"></path><path d="M958.84 405.66L1159.93 557.46" stroke="hsl(228.5, 77.2%, 51.5%)" stroke-width="1.5"></path><path d="M1097.68 243.48L1097.68 243.48" stroke="hsl(228.5, 77.2%, 51.5%)" stroke-width="1.5"></path><path d="M1097.68 243.48L1092.15 375.34" stroke="hsl(228.5, 77.2%, 51.5%)" stroke-width="1.5"></path><path d="M1097.68 243.48L1242.53 351.91" stroke="hsl(228.5, 77.2%, 51.5%)" stroke-width="1.5"></path><path d="M1097.68 243.48L1290.63 209.81" stroke="hsl(228.5, 77.2%, 51.5%)" stroke-width="1.5"></path><path d="M1097.68 243.48L1279.99 65.34" stroke="hsl(228.5, 77.2%, 51.5%)" stroke-width="1.5"></path><path d="M1097.68 243.48L1159.93 557.46" stroke="hsl(228.5, 77.2%, 51.5%)" stroke-width="1.5"></path><path d="M1092.15 375.34L1092.15 375.34" stroke="hsl(228.5, 77.2%, 51.5%)" stroke-width="1.5"></path><path d="M1092.15 375.34L1242.53 351.91" stroke="hsl(228.5, 77.2%, 51.5%)" stroke-width="1.5"></path><path d="M1159.93 557.46L1159.93 557.46" stroke="hsl(228.5, 77.2%, 51.5%)" stroke-width="1.5"></path><path d="M1159.93 557.46L1088.43 702.51" stroke="hsl(228.5, 77.2%, 51.5%)" stroke-width="1.5"></path><path d="M1159.93 557.46L1092.15 375.34" stroke="hsl(228.5, 77.2%, 51.5%)" stroke-width="1.5"></path><path d="M1159.93 557.46L1242.53 351.91" stroke="hsl(228.5, 77.2%, 51.5%)" stroke-width="1.5"></path><path d="M1088.43 702.51L1088.43 702.51" stroke="hsl(228.5, 77.2%, 51.5%)" stroke-width="1.5"></path><path d="M1088.43 702.51L1271.57 700.33" stroke="hsl(228.5, 77.2%, 51.5%)" stroke-width="1.5"></path><path d="M1088.43 702.51L1279.01 537.77" stroke="hsl(228.5, 77.2%, 51.5%)" stroke-width="1.5"></path><path d="M1279.99 65.34L1279.99 65.34" stroke="hsl(228.5, 77.2%, 51.5%)" stroke-width="1.5"></path><path d="M1279.99 65.34L1290.63 209.81" stroke="hsl(228.5, 77.2%, 51.5%)" stroke-width="1.5"></path><path d="M1290.63 209.81L1290.63 209.81" stroke="hsl(228.5, 77.2%, 51.5%)" stroke-width="1.5"></path><path d="M1290.63 209.81L1431.7 215.57" stroke="hsl(228.5, 77.2%, 51.5%)" stroke-width="1.5"></path><path d="M1290.63 209.81L1242.53 351.91" stroke="hsl(228.5, 77.2%, 51.5%)" stroke-width="1.5"></path><path d="M1290.63 209.81L1409.14 406.64" stroke="hsl(228.5, 77.2%, 51.5%)" stroke-width="1.5"></path><path d="M1242.53 351.91L1242.53 351.91" stroke="hsl(228.5, 77.2%, 51.5%)" stroke-width="1.5"></path><path d="M1242.53 351.91L1409.14 406.64" stroke="hsl(228.5, 77.2%, 51.5%)" stroke-width="1.5"></path><path d="M1404.96 -89.72L1404.96 -89.72" stroke="hsl(228.5, 77.2%, 51.5%)" stroke-width="1.5"></path><path d="M1404.96 -89.72L1541.31 -48.6" stroke="hsl(228.5, 77.2%, 51.5%)" stroke-width="1.5"></path><path d="M1404.96 -89.72L1279.99 65.34" stroke="hsl(228.5, 77.2%, 51.5%)" stroke-width="1.5"></path><path d="M1431.7 215.57L1431.7 215.57" stroke="hsl(228.5, 77.2%, 51.5%)" stroke-width="1.5"></path><path d="M1431.7 215.57L1550.46 204.68" stroke="hsl(228.5, 77.2%, 51.5%)" stroke-width="1.5"></path><path d="M1431.7 215.57L1409.14 406.64" stroke="hsl(228.5, 77.2%, 51.5%)" stroke-width="1.5"></path><path d="M1409.14 406.64L1409.14 406.64" stroke="hsl(228.5, 77.2%, 51.5%)" stroke-width="1.5"></path><path d="M1409.14 406.64L1546.11 378.25" stroke="hsl(228.5, 77.2%, 51.5%)" stroke-width="1.5"></path><path d="M1409.14 406.64L1279.01 537.77" stroke="hsl(228.5, 77.2%, 51.5%)" stroke-width="1.5"></path><path d="M1405.36 670.21L1405.36 670.21" stroke="hsl(228.5, 77.2%, 51.5%)" stroke-width="1.5"></path><path d="M1405.36 670.21L1537.71 710.66" stroke="hsl(228.5, 77.2%, 51.5%)" stroke-width="1.5"></path><path d="M1541.31 -48.6L1541.31 -48.6" stroke="hsl(228.5, 77.2%, 51.5%)" stroke-width="1.5"></path><path d="M1550.46 204.68L1550.46 204.68" stroke="hsl(228.5, 77.2%, 51.5%)" stroke-width="1.5"></path><path d="M1546.11 378.25L1546.11 378.25" stroke="hsl(228.5, 77.2%, 51.5%)" stroke-width="1.5"></path><path d="M1546.11 378.25L1550.46 204.68" stroke="hsl(228.5, 77.2%, 51.5%)" stroke-width="1.5"></path><path d="M1546.11 378.25L1424.5 515.32" stroke="hsl(228.5, 77.2%, 51.5%)" stroke-width="1.5"></path><path d="M1546.11 378.25L1431.7 215.57" stroke="hsl(228.5, 77.2%, 51.5%)" stroke-width="1.5"></path><path d="M1546.11 378.25L1242.53 351.91" stroke="hsl(228.5, 77.2%, 51.5%)" stroke-width="1.5"></path><path d="M1537.71 710.66L1537.71 710.66" stroke="hsl(228.5, 77.2%, 51.5%)" stroke-width="1.5"></path><circle r="25" cx="62.9" cy="700.01" fill="url(#SvgjsRadialGradient1001)"></circle><circle r="25" cx="218.37" cy="553.71" fill="url(#SvgjsRadialGradient1001)"></circle><circle r="25" cx="654.82" cy="691.84" fill="url(#SvgjsRadialGradient1001)"></circle><circle r="25" cx="1309.79" cy="-109.98" fill="url(#SvgjsRadialGradient1001)"></circle><circle r="25" cx="1279.01" cy="537.77" fill="url(#SvgjsRadialGradient1001)"></circle><circle r="25" cx="1271.57" cy="700.33" fill="url(#SvgjsRadialGradient1001)"></circle><circle r="25" cx="1424.5" cy="515.32" fill="url(#SvgjsRadialGradient1001)"></circle><circle r="25" cx="1571.56" cy="45.79" fill="url(#SvgjsRadialGradient1001)"></circle><circle r="25" cx="1597.23" cy="492.91" fill="url(#SvgjsRadialGradient1001)"></circle><circle r="5" cx="-98.88" cy="540.37" fill="#8b9ad9"></circle><circle r="5" cx="-48.32" cy="639.64" fill="#8b9ad9"></circle><circle r="5" cx="249.03" cy="652.18" fill="#8b9ad9"></circle><circle r="5" cx="384.06" cy="493.23" fill="#8b9ad9"></circle><circle r="5" cx="343.17" cy="649.46" fill="#8b9ad9"></circle><circle r="5" cx="505.88" cy="529.59" fill="#8b9ad9"></circle><circle r="5" cx="498.5" cy="662" fill="#8b9ad9"></circle><circle r="5" cx="643.39" cy="383" fill="#8b9ad9"></circle><circle r="5" cx="673.83" cy="524.87" fill="#8b9ad9"></circle><circle r="5" cx="792.81" cy="391.32" fill="#8b9ad9"></circle><circle r="5" cx="797.7" cy="539.68" fill="#8b9ad9"></circle><circle r="5" cx="854.74" cy="692.33" fill="#8b9ad9"></circle><circle r="5" cx="958.84" cy="405.66" fill="#8b9ad9"></circle><circle r="5" cx="1097.68" cy="243.48" fill="#8b9ad9"></circle><circle r="5" cx="1092.15" cy="375.34" fill="#8b9ad9"></circle><circle r="5" cx="1159.93" cy="557.46" fill="#8b9ad9"></circle><circle r="5" cx="1088.43" cy="702.51" fill="#8b9ad9"></circle><circle r="5" cx="1279.99" cy="65.34" fill="#8b9ad9"></circle><circle r="5" cx="1290.63" cy="209.81" fill="#8b9ad9"></circle><circle r="5" cx="1242.53" cy="351.91" fill="#8b9ad9"></circle><circle r="5" cx="1404.96" cy="-89.72" fill="#8b9ad9"></circle><circle r="5" cx="1431.7" cy="215.57" fill="#8b9ad9"></circle><circle r="5" cx="1409.14" cy="406.64" fill="#8b9ad9"></circle><circle r="5" cx="1405.36" cy="670.21" fill="#8b9ad9"></circle><circle r="5" cx="1541.31" cy="-48.6" fill="#8b9ad9"></circle><circle r="5" cx="1550.46" cy="204.68" fill="#8b9ad9"></circle><circle r="5" cx="1546.11" cy="378.25" fill="#8b9ad9"></circle><circle r="5" cx="1537.71" cy="710.66" fill="#8b9ad9"></circle></g><defs><mask id="SvgjsMask1000"><rect width="1440" height="560" fill="#ffffff"></rect></mask><radialGradient id="SvgjsRadialGradient1001"><stop stop-color="#ffffff" offset="0.1"></stop><stop stop-color="#1735b3" offset="0.2"></stop><stop stop-color="rgba(23, 53, 179, 0)" offset="1"></stop></radialGradient></defs></svg>